<mxfile host="app.diagrams.net" modified="2024-11-21T11:27:27.824Z" agent="Mozilla/5.0 (Windows NT 10.0; Win64; x64; rv:132.0) Gecko/20100101 Firefox/132.0" version="24.6.4" etag="asm3cKYmApg91-PDSnXD" type="github">
  <diagram name="Page-1" id="XfCw9YWW8DibvpUkVDAW">
    <mxGraphModel>
      <root>
        <mxCell id="0" />
        <mxCell id="1" parent="0" />
      </root>
    </mxGraphModel>
  </diagram>
</mxfile>
